<svg width="24" height="24" viewBox="0 0 24 24" fill="none" xmlns="http://www.w3.org/2000/svg">
<g id="ic_share_24px" clip-path="url(#clip0_2248_36)">
<path id="Vector" d="M18 14.08C17.24 14.08 16.56 14.38 16.04 14.85L8.91 10.7C8.96 10.47 9 10.24 9 10C9 9.76 8.96 9.53 8.91 9.3L15.96 5.19C16.5 5.69 17.21 6 18 6C19.66 6 21 4.66 21 3C21 1.34 19.66 0 18 0C16.34 0 15 1.34 15 3C15 3.24 15.04 3.47 15.09 3.7L8.04 7.81C7.5 7.31 6.79 7 6 7C4.34 7 3 8.34 3 10C3 11.66 4.34 13 6 13C6.79 13 7.5 12.69 8.04 12.19L15.16 16.35C15.11 16.56 15.08 16.78 15.08 17C15.08 18.61 16.39 19.92 18 19.92C19.61 19.92 20.92 18.61 20.92 17C20.92 15.39 19.61 14.08 18 14.08Z" fill="#356EAD"/>
</g>
<defs>
<clipPath id="clip0_2248_36">
<rect width="24" height="24" fill="white"/>
</clipPath>
</defs>
</svg>
